<svg width="15" height="22" viewBox="0 0 15 22" fill="none" xmlns="http://www.w3.org/2000/svg">
<path d="M14.5039 2.78967C14.3185 2.50612 14.0477 2.49797 13.7392 2.48869C13.7042 2.48764 13.6688 2.48658 13.6329 2.48509C13.6056 2.48384 13.5754 2.48432 13.5439 2.48483C13.4188 2.48683 13.2724 2.48918 13.1987 2.38415C13.1132 2.26237 13.1213 2.02703 13.128 1.83275C13.1301 1.77136 13.1321 1.71403 13.1309 1.66572C13.1189 1.2144 13.0938 0.73499 12.9194 0.574723C12.7879 0.454477 12.3944 0.471135 12.0316 0.486498C11.914 0.491479 11.7995 0.496323 11.6983 0.496323H3.97486C3.81935 0.496323 3.65635 0.483674 3.49618 0.471246C3.1841 0.44703 2.88281 0.423651 2.66886 0.496323C2.35836 0.602305 2.33733 1.15922 2.31754 1.68364L2.31647 1.71186C2.29985 2.14479 2.19244 2.47885 1.83647 2.4452C1.42245 2.40669 1.01047 2.39455 0.823282 2.76886C0.602204 3.21172 0.647799 3.6753 0.729466 4.50565C0.741132 4.62426 0.753534 4.75035 0.766 4.88494H14.6233C14.6312 4.78657 14.6397 4.68946 14.648 4.59392C14.7129 3.84686 14.7694 3.19596 14.5039 2.78967Z" fill="#785A3F"/>
<path fill-rule="evenodd" clip-rule="evenodd" d="M1.84517 5.70847C2.06159 8.63442 2.27565 11.5637 2.48972 14.4931L2.48985 14.4949C2.60608 16.0854 2.72231 17.6759 2.83892 19.266H3.28107C3.3112 19.5149 3.34568 19.8221 3.38202 20.1461C3.45581 20.8037 3.53732 21.5302 3.60585 21.9766H3.65475C4.10512 21.812 7.21858 20.4827 7.21998 15.1902C7.21941 15.1751 7.21991 15.16 7.22148 15.145H6.45228C6.41504 15.1446 6.37894 15.1322 6.34955 15.1096C6.32015 15.0871 6.29908 15.0556 6.28957 15.02C6.21462 14.8351 6.15418 14.6447 6.1088 14.4506C5.65628 14.7059 5.29694 15.0957 5.08197 15.5645C4.87791 15.0844 4.8512 14.5487 5.00651 14.0511C5.16182 13.5535 5.48926 13.1256 5.93163 12.8422C5.93733 11.2978 6.51619 9.80906 7.55864 8.65777L7.57491 8.64349C7.60521 8.61732 7.644 8.60276 7.68423 8.60244C7.7075 8.60263 7.73048 8.60759 7.75171 8.61701C7.77319 8.62654 7.79241 8.64043 7.80812 8.65777C8.86275 9.81062 9.43855 11.3137 9.42067 12.8671C9.8713 13.1427 10.2054 13.5702 10.361 14.0706C10.5166 14.5709 10.4831 15.1099 10.2667 15.5877C10.0529 15.1181 9.69327 14.728 9.23989 14.4738C9.21219 14.6619 9.16119 14.846 9.08804 15.0218C9.06273 15.0968 9.01211 15.145 8.96149 15.145H8.14118C8.14247 15.154 8.14339 15.163 8.14392 15.172L8.14423 15.1741L8.14423 15.1785C8.14452 15.1863 8.14453 15.1941 8.14426 15.2019C8.15548 20.6463 11.4658 21.8821 11.7448 21.9766H11.8402C11.8646 21.5478 11.9439 20.9561 12.0213 20.3792C12.0745 19.9817 12.1269 19.5912 12.1596 19.266H12.6069C12.7501 17.2632 12.8973 15.266 13.0446 13.2687L13.0446 13.2676L13.0447 13.267C13.233 10.7123 13.4214 8.15756 13.6012 5.59088H1.87381C1.84005 5.59747 1.84235 5.65262 1.84517 5.70847ZM7.68423 8.60244L7.68338 8.60243H7.68519L7.68423 8.60244Z" fill="#785A3F"/>
</svg>
